# xmcd
#
# Track frame offsets: 
#        150
#        24210
#        41978
#        58168
#        78173
#        98594
#        115372
#        133966
#        150898
#        166541
#        185388
#
# Disc length: 2660 seconds
#
# Revision: 0
# Processed by: cddbd v1.5.2PL0 Copyright (c) Steve Scherf et al.
# Submitted via: ExactAudioCopy v0.95b4
#
DISCID=7e0a620b
DTITLE=Sasha Campbell - Soulmate
DYEAR=2006
DGENRE=R&B
TTITLE0=Soledad En Enero
TTITLE1=I Believe
TTITLE2=Everything
TTITLE3=Distance
TTITLE4=Reason To Cry
TTITLE5=For You
TTITLE6=Simple
TTITLE7=Take It Back
TTITLE8=Todo Vuelve
TTITLE9=Soulmate
TTITLE10=Blue S
EXTD=
EXTT0=
EXTT1=
EXTT2=
EXTT3=
EXTT4=
EXTT5=
EXTT6=
EXTT7=
EXTT8=
EXTT9=
EXTT10=
PLAYORDER=
